<svg xmlns="http://www.w3.org/2000/svg" xml:space="preserve" width="736" height="150"><path fill="#1079BF" d="M727.141 40.482c19.062 36.717 4.752 81.934-31.964 100.998-36.713 19.062-81.934 4.753-100.996-31.963-19.062-36.718-4.753-81.934 31.962-100.996 36.719-19.064 81.932-4.753 100.998 31.961"/><path fill="#FFF" d="m623.834 79.053 6.436.657q-1.248 6.24-4.829 9.227c-2.384 1.992-5.266 2.988-8.636 2.988-4.574 0-8.096-1.668-10.556-5.008q-3.695-5.007-3.695-12.265c0-4.989 1.35-9.116 4.041-12.376q4.038-4.894 10.77-4.893c7.227 0 11.526 3.807 12.905 11.425l-6.436.887c-.568-4.116-2.597-6.17-6.073-6.17q-3.81-.001-5.537 3.331-1.723 3.333-1.724 8.06c0 3.35.6 5.935 1.79 7.75q1.79 2.725 5.012 2.725c3.279-.001 5.46-2.113 6.532-6.338M649.139 91.925c-4.898 0-8.648-1.761-11.227-5.284-2.582-3.526-3.875-7.563-3.875-12.119q0-7.355 4.287-12.246c2.853-3.262 6.627-4.893 11.311-4.893 4.445 0 8.09 1.588 10.951 4.759q4.284 4.764 4.283 12.38 0 7.852-4.447 12.625-4.45 4.778-11.283 4.778m.267-6.171q7.548-.001 7.549-11.264 0-5.092-1.806-8.028c-1.2-1.961-3.056-2.938-5.551-2.938-2.581 0-4.5 1.01-5.746 3.036-1.244 2.024-1.871 4.711-1.871 8.06 0 3.611.664 6.373 1.987 8.274q1.99 2.859 5.438 2.86M718.77 91.237h-7.853V70.582q.001-6.434-5.711-6.434-3.32-.001-5.302 2.429-1.988 2.43-1.988 7.256v17.404h-7.945V70.582c0-4.358-1.789-6.533-5.354-6.533q-3.251 0-5.467 2.625-2.215 2.627-2.215 7.159v17.404h-7.717V58.071h7.255v7.059q3.543-7.747 11.066-7.747c4.883 0 8.053 2.582 9.524 7.747q4.003-7.747 11.062-7.747 4.797.001 7.718 2.986c1.948 1.994 2.926 4.467 2.926 7.424v23.444z"/><path fill="#4D4D4F" d="m551.246 13.323-.055 32.927h15.536v20.06h-15.449v34.785q0 5.52.9 7.306 1.38 2.76 4.833 2.759 3.105.001 8.699-2.11l6.747 21.68c-6.955 1.788-18.117 3.852-24.146 3.852q-10.496 0-15.465-3.167-4.972-3.168-7.354-9.624c-1.586-4.304-2.383-11.277-2.383-20.914l.002-34.576h-10.389V46.254l10.378-.006.002-32.881zM38.885 13.367v32.882h15.536V66.31H38.974v34.786q0 5.518.899 7.304 1.379 2.76 4.831 2.76 3.107 0 8.702-2.109l6.742 21.679c-6.95 1.789-18.113 3.852-24.141 3.852-6.998 0-12.151-1.057-15.468-3.168q-4.969-3.165-7.351-9.624-2.383-6.456-2.382-20.913l.002-34.576H.418L.417 46.253l10.379-.006.004-32.88zM119.489 132.699c-1.06-2.221-1.772-3.882-2.096-5.05-.325-1.166-.647-2.992-.974-5.485q-5.514 6.266-10.968 8.959-7.452 3.586-17.323 3.599-13.12.018-19.927-7.133-6.81-7.148-6.823-17.636-.014-9.84 4.879-16.189 4.896-6.352 18.08-9.457c10.536-2.507 17.489-4.213 20.66-5.077 4.669-1.27 7.411-1.428 9.484-4.685 2.182-3.429-.255-6.575-1.782-8.003-1.582-1.475-4.016-2.434-7.608-2.432-4.602.008-7.587.535-9.819 2.357-3.939 3.218-2.609 7.846-6.51 7.85-6.442.01-25.221.051-25.221.051 1.004-5.53 1.236-11.436 4.363-16.349 1.989-3.123 4.654-5.928 8.241-8.263 2.576-1.685 6.115-2.992 10.629-3.916q6.762-1.394 14.635-1.402 12.632-.016 20.298 1.64 7.669 1.66 12.781 6.937 3.596 3.656 5.674 10.36c1.39 4.472 2.083 8.741 2.091 12.806v56.52m-27.458-40.952a118 118 0 0 1-12.08 4.326c-5.707 1.797-9.315 3.562-10.833 5.301q-2.341 2.685-2.338 6.103.003 3.904 2.318 6.378 2.317 2.481 6.806 2.475 4.697-.007 8.731-2.694 4.034-2.69 5.722-6.556 1.685-3.863 1.678-10.046zM370.182 132.699c-1.061-2.221-1.775-3.882-2.097-5.05q-.489-1.747-.977-5.485c-3.677 4.178-7.329 7.163-10.966 8.959q-7.452 3.586-17.324 3.599-13.122.018-19.925-7.133c-4.542-4.765-6.814-10.644-6.825-17.636q-.014-9.84 4.879-16.189c3.267-4.235 9.29-7.386 18.08-9.457 10.536-2.507 17.489-4.213 20.658-5.077 4.672-1.27 7.413-1.428 9.485-4.685 2.182-3.429-.254-6.575-1.783-8.003-1.581-1.475-4.014-2.434-7.605-2.432-4.603.008-7.587.535-9.819 2.357-3.937 3.218-2.608 7.846-6.509 7.85-6.443.01-25.223.051-25.223.051 1.007-5.53 1.237-11.436 4.365-16.349 1.99-3.123 4.654-5.928 8.24-8.263q3.862-2.529 10.629-3.916c4.507-.929 9.388-1.397 14.634-1.402 8.424-.012 15.188.537 20.302 1.64q7.664 1.66 12.78 6.937 3.594 3.656 5.675 10.36c1.39 4.472 2.081 8.741 2.088 12.806l-.017 56.49m-27.441-40.922a118 118 0 0 1-12.08 4.326q-8.558 2.694-10.833 5.301-2.343 2.685-2.339 6.103.003 3.904 2.32 6.378 2.315 2.481 6.804 2.475 4.696-.007 8.731-2.694 4.033-2.69 5.719-6.556 1.687-3.863 1.684-10.046zM147.542 13.367h24.653v68.355l31.928-35.419h29.297l-29.424 31.886 29.084 54.57h-28.909l-17.96-36.145-14.619 16.035v20.11h-24.05z"/><path fill="#4D4D4F" d="M307.906 108.149c-3.577 12.046-9.823 17.141-15.805 20.908q-8.976 5.652-25.752 5.652-14.568 0-22.923-4.839-8.353-4.836-13.843-15.369-5.489-10.532-5.489-24.763 0-20.25 11.012-32.773 11.011-12.526 30.415-12.526 15.74 0 24.853 5.613c6.079 3.74 10.703 9.161 13.881 16.263q4.762 10.656 4.762 27.733v3.739h-56.338q.76 7.97 3.659 11.875c2.714 3.74 5.707 6.496 10.08 6.468 9.862-.068 13.578-3.844 15.331-9.149m-1.315-26.22c-.553-6.394-2.015-9.809-4.384-12.574q-3.557-4.147-9.357-4.147-6.697 0-10.702 6.261c-1.702 2.603-2.785 5.312-3.245 10.46zM398.344 13.348h25.445v119.119h-25.445zM429.172 89.819q.001-19.764 11.324-32.57 11.323-12.809 30.586-12.809 22.025 0 33.281 15.046 9.042 12.117 9.041 29.843.001 19.928-11.218 32.653-11.22 12.728-31.032 12.728c-11.787 0-21.313-3.524-28.586-10.571q-13.395-13.094-13.396-34.32m28.172-.081c0 7.698 1.322 18.063 3.971 21.75q3.97 5.53 9.974 5.529 6.076 0 9.979-5.447c2.599-3.632 3.898-14.134 3.898-22.158 0-7.482-1.311-15.041-3.932-18.699q-3.935-5.49-9.737-5.49-6.142 0-10.148 5.57c-2.671 3.715-4.005 11.354-4.005 18.945"/></svg>